<svg xmlns="http://www.w3.org/2000/svg" viewBox="0 0 512 512" fill="#00a86b">
  <path d="M256,32C150,32,64,118,64,224c0,53.4,21.8,101.6,57.1,136.3c-1.3,3.8-2.1,7.9-2.1,12.2c0,13.2,5.3,25.2,14,34c-4.4,14.6-7,29.9-7.8,45.5c-.3,6.3,4.4,11.7,10.7,12c6.3,.3,11.7-4.4,12-10.7c.9-17,4-33.5,9.2-49.3c15.6,4.6,32,7,49,7c13.7,0,27-1.5,39.9-4.4c12.9,2.9,26.2,4.4,39.9,4.4c17,0,33.4-2.4,49-7c5.2,15.8,8.3,32.3,9.2,49.3c.3,6.3,5.7,11,12,10.7c6.3-.3,11-5.7,10.7-12c-.8-15.6-3.4-30.9-7.8-45.5c8.7-8.8,14-20.8,14-34c0-4.3-.8-8.4-2.1-12.2c35.3-34.7,57.1-82.9,57.1-136.3C448,118,362,32,256,32z M200,192c13.2,0,24,10.8,24,24s-10.8,24-24,24s-24-10.8-24-24S186.8,192,200,192z M312,240c-13.2,0-24-10.8-24-24s10.8-24,24-24s24,10.8,24,24S325.2,240,312,240z M256,336c-31.8,0-60.7-14.1-80.5-36.4c-4.2-4.7-3.7-12,1-16.2c4.7-4.2,12-3.7,16.2,1c15.3,17.2,37.5,27.6,63.3,27.6s48-10.4,63.3-27.6c4.2-4.7,11.5-5.2,16.2-1c4.7,4.2,5.2,11.5,1,16.2C316.7,321.9,287.8,336,256,336z"/>
</svg>
